<?xml version="1.0" standalone="no"?>
<!DOCTYPE svg PUBLIC "-//W3C//DTD SVG 20010904//EN"
 "http://www.w3.org/TR/2001/REC-SVG-20010904/DTD/svg10.dtd">
<svg version="1.0" xmlns="http://www.w3.org/2000/svg"
 width="25.000000pt" height="25.000000pt" viewBox="0 0 64.000000 64.000000"
 preserveAspectRatio="xMidYMid meet">

<g transform="translate(0.000000,64.000000) scale(0.100000,-0.100000)"
fill="#000000" stroke="none">
<path d="M125 525 c-31 -30 -32 -73 -4 -109 19 -25 20 -26 2 -26 -27 0 -43
-20 -43 -52 0 -18 -5 -28 -15 -28 -8 0 -15 5 -15 10 0 6 -7 10 -15 10 -12 0
-15 -16 -15 -80 0 -63 3 -80 14 -80 8 0 18 5 21 10 12 19 25 10 25 -18 0 -46
15 -52 120 -50 l95 2 -100 5 -100 6 0 125 0 125 180 0 180 0 0 -125 0 -125
-40 -6 -40 -6 41 -2 c46 -1 54 8 54 60 0 32 12 36 50 14 14 -8 37 -14 53 -15
l27 0 0 80 0 80 -32 0 c-18 -1 -44 -7 -58 -15 -36 -21 -40 -19 -40 18 0 37
-15 57 -43 57 -18 0 -17 1 2 26 28 36 27 79 -4 109 -69 70 -176 -16 -126 -100
l20 -35 -46 0 c-43 0 -45 1 -30 18 35 39 30 97 -12 129 -27 21 -79 15 -106
-12z m90 -35 c8 0 15 -4 15 -10 0 -5 -5 -10 -11 -10 -6 0 -9 -9 -6 -19 4 -16
-1 -19 -29 -18 -20 1 -33 6 -30 11 2 6 -3 19 -12 29 -14 15 -13 17 5 17 12 0
24 8 28 18 6 16 7 16 16 0 6 -10 17 -18 24 -18z m165 15 c0 -9 9 -15 22 -15
17 0 19 -3 10 -12 -7 -7 -12 -19 -12 -28 0 -11 -10 -16 -34 -17 -28 -1 -33 2
-29 18 3 10 0 19 -6 19 -6 0 -11 5 -11 10 0 6 7 10 15 10 9 0 18 7 21 15 4 8
10 15 15 15 5 0 9 -7 9 -15z m207 -292 c-2 -21 -4 -4 -4 37 0 41 2 58 4 38 2
-21 2 -55 0 -75z m-47 37 c0 -33 -2 -60 -5 -60 -4 0 -19 7 -35 15 -24 13 -30
22 -30 49 0 28 5 36 28 44 15 6 30 11 35 11 4 1 7 -26 7 -59z"/>
<path d="M221 314 c-44 -37 -44 -91 0 -128 43 -36 92 -31 126 13 16 21 16 81
0 102 -34 44 -83 49 -126 13z m123 -36 c21 -61 -34 -119 -93 -97 -66 25 -70
108 -7 134 40 17 87 -1 100 -37z"/>
<path d="M323 113 c9 -2 23 -2 30 0 6 3 -1 5 -18 5 -16 0 -22 -2 -12 -5z"/>
</g>
</svg>
